<svg width="953" height="953" viewBox="0 0 953 953" fill="none" xmlns="http://www.w3.org/2000/svg">
<path d="M477 28L485 205H469L477 28Z" fill="#0C99B7"/>
<path d="M477 924L469 747L485 747L477 924Z" fill="#0C99B7"/>
<path d="M925 476L748 484L748 468L925 476Z" fill="#0C99B7"/>
<path d="M29 476L206 468L206 484L29 476Z" fill="#0C99B7"/>
<path d="M758.457 194.544L720.973 243.342L709.659 232.028L758.457 194.544Z" fill="#0C99B7"/>
<path d="M192.657 759.798L230.141 711L241.454 722.314L192.657 759.798Z" fill="#0C99B7"/>
<path d="M192.929 194.271L241.727 231.755L230.413 243.069L192.929 194.271Z" fill="#0C99B7"/>
<path d="M758.184 760.071L709.386 722.586L720.7 711.273L758.184 760.071Z" fill="#0C99B7"/>
<circle cx="477" cy="478" r="276" stroke="#1796C5" stroke-width="12"/>
<circle cx="476.5" cy="475.5" r="338.5" stroke="#1796C5" stroke-width="12"/>
<circle cx="475.5" cy="205.5" r="29" fill="#0C99B7" stroke="#1796C5" stroke-width="9"/>
<circle cx="475.5" cy="746.5" r="29" fill="#0C99B7" stroke="#1796C5" stroke-width="9"/>
<circle cx="746.5" cy="475.5" r="29" fill="#0C99B7" stroke="#1796C5" stroke-width="9"/>
<circle cx="673.5" cy="276.5" r="29" fill="#0C99B7" stroke="#1796C5" stroke-width="9"/>
<circle cx="277.5" cy="276.5" r="29" fill="#0C99B7" stroke="#1796C5" stroke-width="9"/>
<circle cx="673.5" cy="683.5" r="29" fill="#0C99B7" stroke="#1796C5" stroke-width="9"/>
<circle cx="277.5" cy="683.5" r="29" fill="#0C99B7" stroke="#1796C5" stroke-width="9"/>
<circle cx="205.5" cy="475.5" r="29" fill="#0C99B7" stroke="#1796C5" stroke-width="9"/>
<circle cx="476.5" cy="477.5" r="228.5" fill="url(#paint0_angular_7_62)"/>
<circle cx="479" cy="476" r="23" fill="white"/>
<path d="M527 475.5C527 506.109 520.757 533.523 510.943 553.064C500.954 572.956 488.257 583 476 583C463.743 583 451.046 572.956 441.057 553.064C431.243 533.523 425 506.109 425 475.5C425 444.891 431.243 417.477 441.057 397.936C451.046 378.044 463.743 368 476 368C488.257 368 500.954 378.044 510.943 397.936C520.757 417.477 527 444.891 527 475.5Z" stroke="white" stroke-width="12"/>
<path d="M496.716 526.135C465.317 541.286 434.422 549.223 410.004 550.01C397.787 550.403 387.481 548.998 379.621 546.045C371.801 543.106 366.744 538.787 364.174 533.462C361.605 528.136 361.371 521.49 363.937 513.54C366.517 505.549 371.83 496.607 379.741 487.289C395.552 468.665 420.991 449.42 452.39 434.27C483.788 419.12 514.683 411.183 539.101 410.396C551.318 410.002 561.624 411.408 569.484 414.361C577.304 417.299 582.362 421.619 584.931 426.944C587.501 432.269 587.735 438.916 585.168 446.866C582.589 454.856 577.276 463.798 569.364 473.116C553.553 491.741 528.114 510.985 496.716 526.135Z" stroke="white" stroke-width="12"/>
<path d="M456.386 526.141C424.988 510.988 399.551 491.741 383.741 473.116C375.831 463.797 370.518 454.855 367.939 446.864C365.373 438.914 365.608 432.267 368.178 426.942C370.748 421.617 375.805 417.298 383.626 414.361C391.486 411.408 401.792 410.003 414.009 410.398C438.427 411.187 469.321 419.126 500.719 434.279C532.116 449.432 557.554 468.678 573.363 487.304C581.274 496.623 586.586 505.565 589.165 513.555C591.731 521.506 591.496 528.152 588.926 533.477C586.356 538.803 581.299 543.121 573.478 546.059C565.618 549.012 555.312 550.417 543.095 550.022C518.677 549.233 487.783 541.293 456.386 526.141Z" stroke="white" stroke-width="12"/>
<defs>
<radialGradient id="paint0_angular_7_62" cx="0" cy="0" r="1" gradientUnits="userSpaceOnUse" gradientTransform="translate(476.5 477.5) rotate(90) scale(228.5)">
<stop offset="0.18" stop-color="#148FA4"/>
<stop offset="0.285" stop-color="#13C09D"/>
<stop offset="0.51" stop-color="#13A8A0"/>
<stop offset="0.58" stop-color="#147CA7"/>
<stop offset="0.705" stop-color="#214A79"/>
<stop offset="1" stop-color="#253D6D"/>
</radialGradient>
</defs>
</svg>
